<?xml version="1.0" encoding="UTF-8"?>
<svg version="1.1" xmlns="http://www.w3.org/2000/svg" width="609" height="166">
<path d="M0 0 C200.97 0 401.94 0 609 0 C609 54.78 609 109.56 609 166 C408.03 166 207.06 166 0 166 C0 111.22 0 56.44 0 0 Z " fill="#FEFEFF" transform="translate(0,0)"/>
<path d="M0 0 C6.93 0 13.86 0 21 0 C21 37.29 21 74.58 21 113 C14.4 113 7.8 113 1 113 C0.505 109.04 0.505 109.04 0 105 C-0.928125 106.0828125 -0.928125 106.0828125 -1.875 107.1875 C-8.05257531 113.17683895 -14.55430076 115.47525494 -23.125 115.5 C-31.89641948 115.32223527 -37.88874817 113.25614266 -45 108 C-46.485 106.948125 -46.485 106.948125 -48 105.875 C-54.82034933 100.0418065 -58.34103768 91.46837961 -59.23486328 82.69458008 C-59.93770309 70.34450073 -59.37586063 58.99760887 -51.8125 48.625 C-43.08393151 40.47833608 -35.10029073 36.599741 -23.125 36.625 C-22.3314209 36.62661133 -21.5378418 36.62822266 -20.72021484 36.62988281 C-12.06900497 36.81119027 -7.14609226 38.85390774 -1 45 C-0.67 30.15 -0.34 15.3 0 0 Z " fill="#645CFF" transform="translate(583,14)"/>
<path d="M0 0 C7.26 0 14.52 0 22 0 C22.99902344 3.23683594 23.99804688 6.47367188 25.02734375 9.80859375 C25.99298088 12.92967714 26.95969396 16.05042534 27.92651367 19.17114258 C28.59984243 21.34657494 29.27204535 23.52235609 29.94311523 25.69848633 C30.90575809 28.81943841 31.87239231 31.93912942 32.83984375 35.05859375 C33.14091537 36.03775253 33.441987 37.01691132 33.75218201 38.02574158 C34.1725045 39.37702904 34.1725045 39.37702904 34.60131836 40.75561523 C34.84780624 41.55281479 35.09429413 42.35001434 35.34825134 43.17137146 C35.85034691 44.99323712 35.85034691 44.99323712 37 46 C45.415 23.23 45.415 23.23 54 0 C59.61 0 65.22 0 71 0 C74.72809941 7.99142102 77.79189749 16.20548353 80.85595703 24.46777344 C81.75636371 26.89213439 82.66508503 29.31327521 83.57421875 31.734375 C84.14894262 33.27845792 84.72317923 34.8227223 85.296875 36.3671875 C85.56868591 37.08905243 85.84049683 37.81091736 86.12054443 38.55465698 C87.20954045 41.51071232 88 43.82263015 88 47 C88.66 47 89.32 47 90 47 C90.20367187 45.74445313 90.40734375 44.48890625 90.6171875 43.1953125 C92.34663338 34.54808311 95.36155198 26.23383298 98.125 17.875 C98.6945353 16.13819287 99.26355022 14.401215 99.83203125 12.6640625 C101.21440526 8.44036582 102.60739907 4.22038998 104 0 C111.26 0 118.52 0 126 0 C125.02350812 4.88245941 123.68882609 9.45254849 122.1875 14.1875 C121.93935547 14.98736328 121.69121094 15.78722656 121.43554688 16.61132812 C120.14267251 20.70707516 118.74367761 24.71470148 117.11157227 28.68823242 C115.08348991 33.72024634 113.2832367 38.80645825 111.546875 43.9453125 C111.08924774 45.28914505 111.08924774 45.28914505 110.62237549 46.66012573 C109.66241973 49.48090885 108.70614511 52.30292324 107.75 55.125 C107.09399465 57.05477068 106.43774677 58.98445894 105.78125 60.9140625 C104.18424752 65.60828191 102.59224511 70.30415413 101 75 C94.07 75 87.14 75 80 75 C77.87750694 68.98754673 75.7580688 62.9741908 73.64624023 56.95800781 C72.92730419 54.91278944 72.20661809 52.86818535 71.48413086 50.82421875 C70.44441563 47.8818175 69.41106724 44.93724588 68.37890625 41.9921875 C67.89448814 40.6277803 67.89448814 40.6277803 67.40028381 39.23580933 C65.86363621 34.83196415 64.56611686 30.65622744 64 26 C63.34 26 62.68 26 62 26 C61.73719238 27.28640381 61.47438477 28.57280762 61.20361328 29.89819336 C60.07780289 34.95299196 58.48229701 39.75688982 56.7421875 44.62890625 C56.43427277 45.50401352 56.12635803 46.37912079 55.80911255 47.28074646 C54.83592261 50.04307064 53.85559529 52.80279711 52.875 55.5625 C52.2091596 57.44839978 51.54379051 59.33446604 50.87890625 61.22070312 C49.25891055 65.81607747 47.62926271 70.40786138 46 75 C39.07 75 32.14 75 25 75 C23.204704 69.95959852 21.41220805 64.91826916 19.625 59.875 C19.35599884 59.1160141 19.08699768 58.3570282 18.80984497 57.57504272 C14.45978117 45.28517905 10.26047318 32.95230443 6.21142578 20.56005859 C3.96295894 13.64534041 3.96295894 13.64534041 1.22265625 6.91796875 C0 4 0 4 0 0 Z " fill="#645CFF" transform="translate(308,52)"/>
<path d="M0 0 C5.54846308 5.00342741 8.56746717 9.89968484 9.20507812 17.41822815 C9.30955978 20.23556877 9.35483821 23.04801497 9.37890625 25.8671875 C9.39590073 26.90134796 9.4128952 27.93550842 9.43040466 29.00100708 C9.48328948 32.29227662 9.52368899 35.58353689 9.5625 38.875 C9.6066601 42.15925629 9.65359048 45.4434234 9.70530701 48.72756958 C9.73685261 50.76548512 9.76386351 52.80347779 9.78553772 54.84152222 C9.79902756 55.77924469 9.8125174 56.71696716 9.82641602 57.68310547 C9.83592789 58.49472137 9.84543976 59.30633728 9.85523987 60.14254761 C10.05614826 64.10832307 10.56149173 68.05342557 11 72 C4.07 72 -2.86 72 -10 72 C-10.495 68.535 -10.495 68.535 -11 65 C-11.61746094 65.40992187 -12.23492187 65.81984375 -12.87109375 66.2421875 C-22.25335849 72.21142139 -30.85169182 74.17428846 -42 73 C-48.68913011 71.29191938 -53.24899028 67.77387567 -57 62 C-59.06579977 55.80260068 -59.1874454 47.22580613 -57 41 C-50.01704348 30.52556522 -37.11594286 27.75454625 -25.5 25.375 C-23.55067384 24.97291967 -21.60266462 24.56438364 -19.65625 24.1484375 C-18.80869141 23.97489746 -17.96113281 23.80135742 -17.08789062 23.62255859 C-14.80501604 23.12206496 -14.80501604 23.12206496 -13 21 C-12.47754445 16.29483975 -12.47754445 16.29483975 -14.3125 12.125 C-18.95532373 9.02978418 -24.65218297 9.5458662 -30 10 C-33.93354782 11.76608269 -36.40240752 13.60561755 -38.125 17.625 C-38.41375 18.40875 -38.7025 19.1925 -39 20 C-41.04224637 19.88485851 -43.08380159 19.75742674 -45.125 19.625 C-46.26195312 19.55539063 -47.39890625 19.48578125 -48.5703125 19.4140625 C-51.95393616 19.00556124 -54.81612441 18.19032431 -58 17 C-56.11351879 9.23847731 -52.79465583 3.23159803 -46.046875 -1.31640625 C-32.52211247 -8.53138783 -12.92140836 -8.74322841 0 0 Z " fill="#665EFF" transform="translate(500,56)"/>
<path d="M0 0 C7.26 0 14.52 0 22 0 C22.01458252 1.54905029 22.02916504 3.09810059 22.04418945 4.6940918 C22.10218045 10.44367507 22.17941414 16.19286705 22.26245117 21.94213867 C22.29569657 24.43002978 22.32372966 26.91799624 22.34643555 29.40600586 C22.3799877 32.98323668 22.43230592 36.55977719 22.48828125 40.13671875 C22.49467117 41.24834885 22.5010611 42.35997894 22.50764465 43.5052948 C22.53733589 45.06634697 22.53733589 45.06634697 22.56762695 46.65893555 C22.57873001 47.5716069 22.58983307 48.48427826 22.60127258 49.42460632 C23.23703596 53.53102315 25.01861616 56.18685339 28.1875 58.8125 C33.38473341 61.00688744 37.5417681 60.46177343 42.75 58.8125 C46.61155108 56.65894267 49.22486953 54.45169692 50.58872986 50.13787842 C51.0385663 47.79952336 51.16051921 45.61240787 51.20532227 43.23144531 C51.22526749 42.29077209 51.24521271 41.35009888 51.26576233 40.38092041 C51.28247482 39.37349792 51.29918732 38.36607544 51.31640625 37.328125 C51.33718735 36.29057068 51.35796844 35.25301636 51.37937927 34.184021 C51.44471408 30.87274742 51.50368517 27.56139518 51.5625 24.25 C51.60570049 22.00389815 51.64931527 19.75780422 51.69335938 17.51171875 C51.8011579 12.00789193 51.90035123 6.50400457 52 1 C58.93 1 65.86 1 73 1 C73 25.75 73 50.5 73 76 C66.4 76 59.8 76 53 76 C52.505 72.04 52.505 72.04 52 68 C51.5153125 68.47050781 51.030625 68.94101563 50.53125 69.42578125 C42.25475987 77.11336727 36.04369488 78.5926719 24.703125 78.35546875 C17.67016477 77.68036392 10.92855942 75.21019138 6 70 C1.46283953 63.23950163 -0.13232842 57.43053292 -0.11352539 49.27001953 C-0.11344986 48.16933136 -0.11337433 47.06864319 -0.11329651 45.93460083 C-0.10813522 44.76251068 -0.10297394 43.59042053 -0.09765625 42.3828125 C-0.0962413 41.17051971 -0.09482635 39.95822693 -0.09336853 38.709198 C-0.08778345 34.84777327 -0.07523361 30.98640712 -0.0625 27.125 C-0.05748308 24.50260501 -0.0529205 21.8802091 -0.04882812 19.2578125 C-0.03781889 12.8385192 -0.02056444 6.41926952 0 0 Z " fill="#655DFF" transform="translate(222,51)"/>
<path d="M0 0 C9.24 0 18.48 0 28 0 C28 8.91 28 17.82 28 27 C24.3184375 26.75507812 20.636875 26.51015625 16.84375 26.2578125 C5.9649869 26.26155519 -0.41548911 29.18286186 -8.15625 36.7421875 C-11.71560989 40.35868623 -15.11184249 44.0987631 -18.5 47.875 C-20.29902646 49.77750455 -22.10369034 51.67469475 -23.9140625 53.56640625 C-27.18130903 57.0147209 -30.42752688 60.47776998 -33.61132812 64.00341797 C-34.2442981 64.70433563 -34.87726807 65.4052533 -35.52941895 66.12741089 C-37.20002927 68.0380352 -37.20002927 68.0380352 -38 71 C-37.41567703 71.25180527 -36.83135406 71.50361053 -36.22932434 71.76304626 C-33.7202333 73.1552302 -32.24403544 74.65763568 -30.33081055 76.79125977 C-29.62454025 77.56869034 -28.91826996 78.34612091 -28.19059753 79.14710999 C-27.43031754 79.98672775 -26.67003754 80.82634552 -25.88671875 81.69140625 C-24.23048544 83.46075071 -22.57086188 85.22692656 -20.90820312 86.99023438 C-18.29941631 89.75817989 -15.71196231 92.53511526 -13.17797852 95.37182617 C-1.66733167 108.47451421 -1.66733167 108.47451421 14.37167358 113.7104187 C18.92061319 113.71630223 23.4621716 113.31780429 28 113 C28 122.24 28 131.48 28 141 C18.76 141 9.52 141 0 141 C0.24878906 136.99230469 0.49757813 132.98460937 0.75390625 128.85546875 C0.75673938 117.50327297 -1.89803645 110.70553098 -9.84765625 102.61328125 C-13.48527533 99.05849048 -17.25232304 95.68023794 -21.0625 92.3125 C-22.99094473 90.51479178 -24.91353243 88.71077912 -26.83007812 86.90039062 C-31.48845174 82.52538399 -36.21268153 78.23330204 -41 74 C-49.30833074 77.71833747 -55.85874534 85.71016226 -62.33666992 91.92236328 C-64.22053175 93.70829721 -66.12636795 95.47136431 -68.05444336 97.20947266 C-81.47038353 109.16879788 -81.47038353 109.16879788 -86.73623657 125.76483154 C-86.73895704 130.51622898 -86.32815748 135.2599475 -86 140 C-94.91 140 -103.82 140 -113 140 C-113 131.09 -113 122.18 -113 113 C-109.31714844 113.21140625 -105.63429688 113.4228125 -101.83984375 113.640625 C-88.37023295 113.54867551 -81.29476364 108.43194899 -71.92871094 99.26342773 C-70.13688298 97.42863201 -68.34821902 95.5907418 -66.5625 93.75 C-64.65344057 91.85715282 -62.74111075 89.96812799 -60.82519531 88.08227539 C-56.83889939 84.13932789 -52.90515379 80.14923919 -48.99853516 76.12744141 C-44.51675779 71.51505293 -39.9549646 66.99559468 -35.34198284 62.51472282 C-31.34381482 58.62642161 -27.39550832 54.69208736 -23.48319721 50.71740913 C-21.16338807 48.36067494 -18.82729293 46.02742833 -16.4536438 43.72473145 C-7.45993754 34.94164235 -0.48940447 27.84769162 0.6151123 14.89749146 C0.64903934 9.92754561 0.28482692 4.96189343 0 0 Z " fill="#7068FF" transform="translate(123,7)"/>
<path d="M0 0 C6.93 0 13.86 0 21 0 C21.33 3.3 21.66 6.6 22 10 C22.94875 9.0925 23.8975 8.185 24.875 7.25 C31.00002938 2.00707424 36.99033947 0 45 0 C45 6.27 45 12.54 45 19 C42.97875 19.2475 40.9575 19.495 38.875 19.75 C31.75815828 20.87120955 31.75815828 20.87120955 26 25 C23.10991517 31.25421166 22.53569362 36.57139644 22.48828125 43.40625 C22.47033005 44.3715564 22.45237885 45.33686279 22.43388367 46.3314209 C22.38008802 49.38757068 22.34598394 52.44356706 22.3125 55.5 C22.27929978 57.58335454 22.24480764 59.66668891 22.20898438 61.75 C22.1219684 66.83335166 22.06163682 71.91602512 22 77 C14.74 77 7.48 77 0 77 C0 51.59 0 26.18 0 0 Z " fill="#675FFF" transform="translate(166,51)"/>
<path d="M0 0 C4.73124083 2.72581776 8.58615898 7.21600132 10.33203125 12.421875 C11.53554705 19.45781353 11.64005604 27.32413119 7.6875 33.5 C3.58625325 37.90029599 -0.00376257 41.18315784 -6.16796875 41.7734375 C-12.56077495 41.96829443 -17.47294943 41.9639173 -22.7265625 38.0625 C-27.78636013 33.07747771 -29.44372139 27.17875217 -29.5625 20.25 C-29.46263776 13.9919663 -28.8085723 9.17807757 -24.4375 4.48828125 C-17.44135205 -1.85197783 -9.02964881 -3.95700826 0 0 Z " fill="#FDFCFF" transform="translate(574.3125,69.5)"/>
<path d="M0 0 C-0.17456081 6.85547912 -1.68393835 11.62074427 -6 17 C-10.65034816 21.24002332 -15.3294085 21.35361232 -21.390625 21.2734375 C-24 21 -24 21 -26.6875 19.4375 C-28.52035388 16.03362851 -28.54407614 13.80853299 -28 10 C-24.62751001 5.16609768 -19.39135859 4.25958041 -14 2.75 C-13.09765625 2.481875 -12.1953125 2.21375 -11.265625 1.9375 C-7.2879657 0.78421417 -4.18513399 0 0 0 Z " fill="#FAF9FF" transform="translate(490,93)"/>
<path d="M0 0 C5.94 0 11.88 0 18 0 C18 5.94 18 11.88 18 18 C12.06 18 6.12 18 0 18 C0 12.06 0 6.12 0 0 Z " fill="#FEFEFF" transform="translate(128,125)"/>
<path d="M0 0 C5.94 0 11.88 0 18 0 C18 5.94 18 11.88 18 18 C12.06 18 6.12 18 0 18 C0 12.06 0 6.12 0 0 Z " fill="#FEFEFF" transform="translate(15,125)"/>
<path d="M0 0 C5.94 0 11.88 0 18 0 C18 5.94 18 11.88 18 18 C12.06 18 6.12 18 0 18 C0 12.06 0 6.12 0 0 Z " fill="#FEFDFF" transform="translate(128,12)"/>
</svg>
